<svg width="16" height="16" viewBox="0 0 16 16" fill="none" xmlns="http://www.w3.org/2000/svg">
<g clip-path="url(#clip0_211_117)">
<path d="M6.06004 6.00005C6.21677 5.5545 6.52614 5.17879 6.93334 4.93948C7.34054 4.70016 7.8193 4.61268 8.28482 4.69253C8.75034 4.77238 9.17258 5.0144 9.47676 5.37574C9.78093 5.73708 9.94741 6.1944 9.94671 6.66672C9.94671 8.00005 7.94671 8.66672 7.94671 8.66672M7.99998 11.3334H8.00665M14.6666 8.00004C14.6666 11.6819 11.6819 14.6667 7.99998 14.6667C4.31808 14.6667 1.33331 11.6819 1.33331 8.00004C1.33331 4.31814 4.31808 1.33337 7.99998 1.33337C11.6819 1.33337 14.6666 4.31814 14.6666 8.00004Z" stroke="#71717A" stroke-width="1.33" stroke-linecap="round" stroke-linejoin="round"/>
</g>
<defs>
<clipPath id="clip0_211_117">
<rect width="16" height="16" fill="white"/>
</clipPath>
</defs>
</svg>
